<?xml version="1.0" standalone="no"?>
<!DOCTYPE svg PUBLIC "-//W3C//DTD SVG 20010904//EN"
 "http://www.w3.org/TR/2001/REC-SVG-20010904/DTD/svg10.dtd">
<svg version="1.0" xmlns="http://www.w3.org/2000/svg"
 width="512.000000pt" height="512.000000pt" viewBox="0 0 512.000000 512.000000"
 preserveAspectRatio="xMidYMid meet">
<metadata>
Created by potrace 1.11, written by Peter Selinger 2001-2013
</metadata>
<g transform="translate(0.000000,512.000000) scale(0.100000,-0.100000)"
fill="#000000" stroke="none">
<path d="M2974 4810 c-49 -20 -76 -98 -51 -146 8 -16 25 -38 37 -49 25 -22
104 -125 98 -129 -4 -3 -128 -36 -157 -42 -14 -3 -44 -18 -68 -35 -24 -16 -47
-29 -52 -29 -14 0 -161 -152 -155 -161 3 -5 1 -9 -5 -9 -5 0 -13 -10 -16 -21
-6 -19 -12 -21 -59 -14 -28 4 -61 8 -73 8 -13 1 -23 4 -23 8 0 3 -11 5 -25 4
-14 -2 -25 0 -25 3 0 4 -17 7 -37 8 -21 0 -85 6 -142 12 -128 15 -416 15 -536
1 -49 -6 -106 -12 -126 -13 -20 -2 -41 -5 -45 -8 -5 -2 -27 -6 -49 -7 -22 -2
-41 -7 -43 -11 -2 -5 -9 -7 -17 -4 -7 3 -58 -7 -114 -21 -55 -15 -108 -28
-118 -30 -10 -2 -18 -4 -18 -5 0 -1 -7 -3 -15 -5 -8 -2 -63 -19 -122 -39 -171
-57 -291 -124 -391 -218 -31 -30 -59 -53 -60 -52 -2 2 -14 -15 -27 -36 -14
-22 -28 -40 -32 -40 -3 0 -23 -28 -44 -62 -21 -35 -43 -66 -48 -70 -6 -4 -8
-8 -4 -8 4 0 -7 -30 -24 -67 -17 -38 -34 -84 -39 -103 -4 -19 -10 -45 -13 -58
-41 -178 -23 -418 42 -562 14 -30 26 -60 27 -65 4 -16 68 -120 77 -123 4 -2 8
-8 8 -14 0 -12 8 -21 120 -133 44 -44 83 -78 85 -75 2 3 10 -3 17 -12 17 -22
192 -113 248 -129 52 -15 45 -13 88 -23 33 -8 33 -9 26 -49 -22 -128 -29 -192
-39 -352 -6 -96 -2 -174 20 -410 1 -16 4 -30 5 -30 1 0 3 -17 6 -37 2 -21 13
-73 24 -115 11 -43 23 -89 26 -103 16 -75 115 -333 157 -405 6 -11 26 -49 45
-85 19 -36 40 -72 47 -80 8 -8 15 -19 16 -25 1 -5 12 -23 24 -40 12 -16 45
-62 74 -102 29 -40 62 -75 74 -79 35 -12 126 -6 254 17 65 12 127 23 138 24
11 2 20 4 20 5 0 1 13 4 28 6 16 3 66 17 110 31 45 15 90 28 100 30 57 10 465
212 487 241 3 4 32 25 65 47 60 39 139 100 185 142 68 62 191 183 185 183 -3
0 13 18 35 39 23 22 40 41 39 43 -3 3 8 17 62 80 l24 28 60 -40 c33 -22 65
-40 72 -40 7 0 13 -4 13 -10 0 -5 3 -9 8 -8 4 1 27 -7 52 -18 104 -47 298 -79
415 -69 99 8 202 30 280 58 76 28 198 96 252 141 110 93 243 256 258 319 4 15
11 27 15 27 8 0 49 123 75 228 18 71 21 249 6 327 -16 85 -47 189 -75 248 -14
32 -26 60 -26 62 0 2 -16 37 -35 76 -19 40 -35 78 -35 86 0 7 -4 13 -8 13 -4
0 -25 33 -45 73 -49 93 -108 191 -119 195 -4 2 -8 10 -8 18 0 8 -5 14 -11 14
-5 0 -8 4 -5 9 4 5 2 11 -2 13 -5 1 -27 28 -49 58 -22 30 -50 65 -62 78 -12
12 -19 22 -16 22 17 0 -295 326 -363 380 -54 43 -158 128 -183 150 l-28 25 20
75 c16 58 19 93 15 155 -6 91 -41 213 -80 279 -20 34 -23 47 -14 53 7 4 58 8
113 9 110 1 137 10 160 54 24 46 19 82 -17 124 -30 33 -39 37 -98 42 -36 3
-69 6 -75 5 -5 -1 -28 -3 -50 -5 -22 -2 -40 -5 -40 -6 0 -1 -15 -3 -32 -5 -18
-2 -58 -15 -88 -29 l-56 -25 -47 22 c-26 12 -49 25 -52 29 -6 7 -39 16 -67 17
-7 1 -13 6 -13 12 0 20 -61 158 -81 180 -10 12 -19 25 -19 29 0 10 -75 85
-115 115 -33 25 -73 31 -111 15z"/>
</g>
</svg>
